<svg width="228" height="46" viewBox="0 0 228 46" fill="none" xmlns="http://www.w3.org/2000/svg">
<path d="M0 23C0 10.2975 10.1909 0 22.7621 0C35.3332 0 45.5241 10.2975 45.5241 23V46H22.7621C10.1909 46 0 35.7025 0 23Z" fill="white"/>
<path fill-rule="evenodd" clip-rule="evenodd" d="M9.27042 23.4342C9.10582 23.1678 9.10582 22.8298 9.27042 22.5635L16.8844 10.242C17.0328 10.0019 17.2931 9.85596 17.5731 9.85596H23.7792C24.4171 9.85596 24.806 10.5656 24.4679 11.1127L17.392 22.5635C17.2274 22.8298 17.2274 23.1678 17.392 23.4342L24.2738 34.5707C24.6964 35.2546 24.2102 36.1417 23.4129 36.1417H19.8238C18.1436 36.1417 16.582 35.2663 15.6915 33.8252L9.27042 23.4342ZM20.6511 23.4342C20.487 23.1678 20.487 22.8298 20.6511 22.5635L28.245 10.242C28.3931 10.0019 28.6526 9.85596 28.9319 9.85596H29.2758C32.4569 9.85596 34.3962 13.4043 32.7103 16.1399L28.7513 22.5635C28.5871 22.8298 28.5871 23.1678 28.7513 23.4342L35.6149 34.5707C36.0364 35.2546 35.5516 36.1417 34.7563 36.1417H31.1767C29.501 36.1417 27.9435 35.2663 27.0553 33.8252L20.6511 23.4342Z" fill="#31225A"/>
<path d="M68.9862 36.0333L62.1454 25.6273H61.4762V36.0333H55.3047V9.92442H66.1607C71.8117 9.92442 75.3437 13.2303 75.3437 17.7759C75.3437 21.5701 72.7784 24.5754 68.6144 25.4019L75.9013 36.0333H68.9862ZM61.4762 15.4092V21.1944H65.9748C68.0568 21.1944 69.2836 20.105 69.2836 18.3018C69.2836 16.5362 68.0568 15.4092 65.9748 15.4092H61.4762Z" fill="white"/>
<path d="M82.3912 27.994C83.0232 30.2104 84.7706 31.4126 87.1128 31.4126C89.3063 31.4126 90.3845 30.6612 91.1652 29.3464L95.8125 32.4644C94.251 34.5306 91.7973 36.5216 86.9269 36.5216C80.458 36.5216 76.3684 32.0512 76.3684 26.1532C76.3684 20.4431 80.9041 15.7473 86.5552 15.7473C92.9498 15.7473 96.7419 20.8563 96.7419 25.74C96.7419 26.7167 96.6676 27.4681 96.5932 27.994H82.3912ZM82.3169 24.0871H90.9793C90.4589 21.8331 88.9717 20.4431 86.7039 20.4431C84.436 20.4431 82.8373 21.6828 82.3169 24.0871Z" fill="white"/>
<path d="M108.526 36.0333C103.47 36.0333 100.904 32.9904 100.904 28.4072V21.5701H97.6328V16.2356H99.1942C100.57 16.2356 101.276 15.4843 101.276 14.0192V10.9763H107.299V16.2356H111.76V21.5701H107.076V27.6559C107.076 29.5718 108.08 30.5861 109.827 30.5861H111.872V36.0333H108.526Z" fill="white"/>
<path d="M126.784 16.2356H132.956V36.0333H127.156V34.3803C125.781 35.6952 123.847 36.5216 121.691 36.5216C116.672 36.5216 114.144 33.0655 114.144 28.5951V16.2356H120.353V27.7686C120.353 29.6094 121.542 30.9618 123.55 30.9618C125.52 30.9618 126.784 29.6469 126.784 27.7686V16.2356Z" fill="white"/>
<path d="M142.35 17.9261C143.688 16.6113 145.585 15.7473 147.778 15.7473V21.6077C144.506 21.6077 142.722 22.8474 142.722 25.4395V36.0333H136.513V16.2356H142.35V17.9261Z" fill="white"/>
<path d="M161.616 15.7473C166.226 15.7473 169.238 18.9029 169.238 23.4484V36.0333H163.029V24.6881C163.029 22.5468 161.579 21.3071 159.72 21.3071C157.861 21.3071 156.337 22.6595 156.337 24.4627V36.0333H150.128V16.2356H155.965V17.8134C157.303 16.5737 159.237 15.7473 161.616 15.7473Z" fill="white"/>
<path d="M177.769 27.994C178.401 30.2104 180.148 31.4126 182.49 31.4126C184.684 31.4126 185.762 30.6612 186.543 29.3464L191.19 32.4644C189.629 34.5306 187.175 36.5216 182.305 36.5216C175.836 36.5216 171.746 32.0512 171.746 26.1532C171.746 20.4431 176.282 15.7473 181.933 15.7473C188.327 15.7473 192.12 20.8563 192.12 25.74C192.12 26.7167 192.045 27.4681 191.971 27.994H177.769ZM177.694 24.0871H186.357C185.836 21.8331 184.349 20.4431 182.082 20.4431C179.814 20.4431 178.215 21.6828 177.694 24.0871Z" fill="white"/>
<path d="M208.877 8.57202H215.085V36.0333H209.36V34.3428C207.947 35.7327 206.051 36.5216 203.709 36.5216C198.021 36.5216 193.931 32.0888 193.931 26.1532C193.931 20.2177 197.872 15.7848 203.56 15.7848C205.679 15.7848 207.464 16.4235 208.877 17.6256V8.57202ZM204.601 30.9993C207.315 30.9993 209.137 29.0083 209.137 26.1532C209.137 23.2606 207.315 21.2696 204.601 21.2696C201.999 21.2696 200.103 23.3357 200.103 26.1532C200.103 28.9707 201.962 30.9993 204.601 30.9993Z" fill="white"/>
<path d="M227.742 35.532C227.742 36.1576 227.269 36.636 226.65 36.636C226.006 36.636 225.533 36.1576 225.533 35.532C225.533 34.8941 226.006 34.4157 226.65 34.4157C227.269 34.4157 227.742 34.8941 227.742 35.532Z" fill="white"/>
<path d="M227.779 30.3631C227.779 32.3258 226.334 33.8101 224.44 33.8101C222.559 33.8101 221.078 32.3503 221.078 30.3754C221.078 28.5477 222.267 27.4682 223.202 27.2106L223.918 29.0261C223.311 29.1855 222.874 29.6394 222.874 30.3263C222.874 31.1237 223.469 31.7493 224.428 31.7493C225.387 31.7493 225.982 31.1237 225.982 30.3263C225.982 29.6271 225.545 29.1487 224.962 28.9893L225.679 27.1738C226.577 27.4314 227.779 28.5231 227.779 30.3631Z" fill="white"/>
<path d="M227.779 23.2095C227.779 25.2703 226.334 26.7423 224.428 26.7423C222.51 26.7423 221.078 25.2703 221.078 23.2095C221.078 21.1365 222.51 19.6645 224.428 19.6645C226.334 19.6645 227.779 21.1365 227.779 23.2095ZM225.982 23.1973C225.982 22.3141 225.339 21.7253 224.416 21.7253C223.506 21.7253 222.874 22.3018 222.874 23.1973C222.874 24.0927 223.506 24.6815 224.428 24.6815C225.326 24.6815 225.982 24.0927 225.982 23.1973Z" fill="white"/>
<path d="M221.065 11.1029C221.065 9.47145 222.231 8.64959 223.627 8.64959L227.609 8.64959L227.609 10.6981L224.015 10.6981C223.408 10.6981 222.862 11.0048 222.862 11.6672C222.862 12.3787 223.408 12.6853 223.87 12.6853L227.609 12.6853L227.609 14.7339L224.015 14.7339C223.408 14.7339 222.862 15.0405 222.862 15.7029C222.862 16.4144 223.396 16.7211 223.87 16.7211L227.609 16.7211L227.609 18.7696L221.223 18.7696L221.223 16.8437L221.745 16.8437C221.345 16.4389 221.065 15.8256 221.065 15.0528C221.065 14.1205 221.357 13.5195 221.903 13.1637C221.405 12.7835 221.065 12.0965 221.065 11.1029Z" fill="white"/>
</svg>
