<svg width="228" height="47" viewBox="0 0 228 47" fill="none" xmlns="http://www.w3.org/2000/svg">
<path d="M0 23.4023C0 10.6998 10.1909 0.402344 22.7621 0.402344C35.3332 0.402344 45.5241 10.6998 45.5241 23.4023V46.4023H22.7621C10.1909 46.4023 0 36.1049 0 23.4023Z" fill="#31225A"/>
<path fill-rule="evenodd" clip-rule="evenodd" d="M9.27042 23.8365C9.10582 23.5701 9.10582 23.2322 9.27042 22.9658L16.8844 10.6444C17.0328 10.4042 17.2931 10.2583 17.5731 10.2583H23.7792C24.4171 10.2583 24.806 10.968 24.4679 11.5151L17.392 22.9658C17.2274 23.2322 17.2274 23.5701 17.392 23.8365L24.2738 34.973C24.6964 35.6569 24.2102 36.544 23.4129 36.544H19.8238C18.1436 36.544 16.582 35.6686 15.6915 34.2276L9.27042 23.8365ZM20.6511 23.8365C20.487 23.5701 20.487 23.2322 20.6511 22.9658L28.245 10.6444C28.3931 10.4042 28.6526 10.2583 28.9319 10.2583H29.2758C32.4569 10.2583 34.3962 13.8067 32.7103 16.5422L28.7513 22.9658C28.5871 23.2322 28.5871 23.5701 28.7513 23.8365L35.6149 34.973C36.0364 35.6569 35.5516 36.544 34.7563 36.544H31.1767C29.501 36.544 27.9435 35.6686 27.0553 34.2276L20.6511 23.8365Z" fill="white"/>
<path d="M68.9862 36.4356L62.1454 26.0296H61.4762V36.4356H55.3047V10.3268H66.1607C71.8117 10.3268 75.3437 13.6326 75.3437 18.1782C75.3437 21.9724 72.7784 24.9778 68.6144 25.8042L75.9013 36.4356H68.9862ZM61.4762 15.8115V21.5968H65.9748C68.0568 21.5968 69.2836 20.5073 69.2836 18.7041C69.2836 16.9385 68.0568 15.8115 65.9748 15.8115H61.4762Z" fill="#31225A"/>
<path d="M82.3912 28.3963C83.0232 30.6128 84.7706 31.8149 87.1128 31.8149C89.3063 31.8149 90.3845 31.0636 91.1652 29.7487L95.8125 32.8668C94.251 34.9329 91.7973 36.924 86.9269 36.924C80.458 36.924 76.3684 32.4535 76.3684 26.5556C76.3684 20.8454 80.9041 16.1496 86.5552 16.1496C92.9498 16.1496 96.7419 21.2587 96.7419 26.1423C96.7419 27.1191 96.6676 27.8704 96.5932 28.3963H82.3912ZM82.3169 24.4894H90.9793C90.4588 22.2354 88.9717 20.8454 86.7039 20.8454C84.436 20.8454 82.8373 22.0851 82.3169 24.4894Z" fill="#31225A"/>
<path d="M108.526 36.4356C103.47 36.4356 100.904 33.3927 100.904 28.8096V21.9724H97.6328V16.638H99.1942C100.57 16.638 101.276 15.8866 101.276 14.4215V11.3786H107.299V16.638H111.76V21.9724H107.076V28.0582C107.076 29.9741 108.08 30.9884 109.827 30.9884H111.872V36.4356H108.526Z" fill="#31225A"/>
<path d="M126.784 16.638H132.956V36.4356H127.156V34.7827C125.781 36.0975 123.847 36.924 121.691 36.924C116.672 36.924 114.144 33.4678 114.144 28.9974V16.638H120.353V28.1709C120.353 30.0117 121.542 31.3641 123.55 31.3641C125.52 31.3641 126.784 30.0493 126.784 28.1709V16.638Z" fill="#31225A"/>
<path d="M142.35 18.3285C143.689 17.0136 145.585 16.1496 147.778 16.1496V22.01C144.506 22.01 142.722 23.2497 142.722 25.8418V36.4356H136.513V16.638H142.35V18.3285Z" fill="#31225A"/>
<path d="M161.616 16.1496C166.226 16.1496 169.238 19.3052 169.238 23.8508V36.4356H163.029V25.0905C163.029 22.9492 161.579 21.7095 159.72 21.7095C157.861 21.7095 156.337 23.0619 156.337 24.8651V36.4356H150.128V16.638H155.965V18.2158C157.304 16.9761 159.237 16.1496 161.616 16.1496Z" fill="#31225A"/>
<path d="M177.769 28.3963C178.401 30.6128 180.148 31.8149 182.49 31.8149C184.684 31.8149 185.762 31.0636 186.543 29.7487L191.19 32.8668C189.629 34.9329 187.175 36.924 182.305 36.924C175.836 36.924 171.746 32.4535 171.746 26.5556C171.746 20.8454 176.282 16.1496 181.933 16.1496C188.327 16.1496 192.12 21.2587 192.12 26.1423C192.12 27.1191 192.045 27.8704 191.971 28.3963H177.769ZM177.694 24.4894H186.357C185.836 22.2354 184.349 20.8454 182.082 20.8454C179.814 20.8454 178.215 22.0851 177.694 24.4894Z" fill="#31225A"/>
<path d="M208.877 8.97437H215.085V36.4356H209.36V34.7451C207.947 36.1351 206.051 36.924 203.709 36.924C198.021 36.924 193.931 32.4911 193.931 26.5556C193.931 20.62 197.872 16.1872 203.56 16.1872C205.679 16.1872 207.464 16.8258 208.877 18.0279V8.97437ZM204.601 31.4017C207.315 31.4017 209.137 29.4106 209.137 26.5556C209.137 23.6629 207.315 21.6719 204.601 21.6719C201.999 21.6719 200.103 23.7381 200.103 26.5556C200.103 29.3731 201.962 31.4017 204.601 31.4017Z" fill="#31225A"/>
<path d="M227.742 35.9343C227.742 36.5599 227.269 37.0383 226.65 37.0383C226.006 37.0383 225.533 36.5599 225.533 35.9343C225.533 35.2965 226.006 34.8181 226.65 34.8181C227.269 34.8181 227.742 35.2965 227.742 35.9343Z" fill="#31225A"/>
<path d="M227.779 30.7655C227.779 32.7281 226.334 34.2124 224.44 34.2124C222.559 34.2124 221.078 32.7527 221.078 30.7777C221.078 28.95 222.267 27.8705 223.202 27.6129L223.918 29.4284C223.311 29.5879 222.874 30.0417 222.874 30.7287C222.874 31.526 223.469 32.1516 224.428 32.1516C225.387 32.1516 225.982 31.526 225.982 30.7287C225.982 30.0295 225.545 29.5511 224.962 29.3916L225.679 27.5761C226.577 27.8337 227.779 28.9255 227.779 30.7655Z" fill="#31225A"/>
<path d="M227.779 23.6119C227.779 25.6727 226.334 27.1447 224.428 27.1447C222.51 27.1447 221.078 25.6727 221.078 23.6119C221.078 21.5388 222.51 20.0668 224.428 20.0668C226.334 20.0668 227.779 21.5388 227.779 23.6119ZM225.982 23.5996C225.982 22.7164 225.339 22.1276 224.416 22.1276C223.506 22.1276 222.874 22.7042 222.874 23.5996C222.874 24.4951 223.506 25.0839 224.428 25.0839C225.326 25.0839 225.982 24.4951 225.982 23.5996Z" fill="#31225A"/>
<path d="M221.065 11.5053C221.065 9.8738 222.231 9.05193 223.627 9.05193L227.609 9.05193L227.609 11.1005L224.015 11.1005C223.408 11.1005 222.862 11.4071 222.862 12.0695C222.862 12.781 223.408 13.0877 223.87 13.0877L227.609 13.0877L227.609 15.1362L224.015 15.1362C223.408 15.1362 222.862 15.4429 222.862 16.1053C222.862 16.8167 223.396 17.1234 223.87 17.1234L227.609 17.1234L227.609 19.1719L221.223 19.1719L221.223 17.2461L221.745 17.2461C221.345 16.8413 221.065 16.2279 221.065 15.4551C221.065 14.5229 221.357 13.9218 221.903 13.5661C221.405 13.1858 221.065 12.4989 221.065 11.5053Z" fill="#31225A"/>
</svg>
